<svg xmlns="http://www.w3.org/2000/svg" viewBox="0 0 512 512">
  <defs>
    <linearGradient id="bg" x1="0" y1="0" x2="0" y2="1">
      <stop offset="0" stop-color="#8ED6FF"/>
      <stop offset="1" stop-color="#C9F0FF"/>
    </linearGradient>
  </defs>
  <rect width="512" height="512" rx="96" fill="url(#bg)"/>
  <g>
    <polygon points="150,208 112,78 240,150" fill="#E8712C"/>
    <polygon points="362,208 400,78 272,150" fill="#E8712C"/>
    <polygon points="160,186 138,104 222,152" fill="#FFD9B8"/>
    <polygon points="352,186 374,104 290,152" fill="#FFD9B8"/>
    <ellipse cx="256" cy="286" rx="150" ry="138" fill="#F4883F"/>
    <ellipse cx="196" cy="344" rx="76" ry="62" fill="#FFF7EE"/>
    <ellipse cx="316" cy="344" rx="76" ry="62" fill="#FFF7EE"/>
    <circle cx="196" cy="260" r="16" fill="#38271B"/>
    <circle cx="316" cy="260" r="16" fill="#38271B"/>
    <circle cx="201" cy="254" r="5" fill="#FFFFFF"/>
    <circle cx="321" cy="254" r="5" fill="#FFFFFF"/>
    <circle cx="256" cy="330" r="18" fill="#38271B"/>
    <path d="M224 358 Q256 386 288 358" stroke="#38271B" stroke-width="10" fill="none" stroke-linecap="round"/>
  </g>
</svg>
